<mxfile host="app.diagrams.net" modified="2024-07-09T09:36:20.645Z" agent="Mozilla/5.0 (Macintosh; Intel Mac OS X 10_15_7) AppleWebKit/537.36 (KHTML, like Gecko) Chrome/126.0.0.0 Safari/537.36" etag="2VoM45u5jJJrKMKrVhnp" version="24.6.4" type="github">
  <diagram name="第 1 页" id="gaEzmhce7fKdX_R5a3YQ">
    <mxGraphModel dx="1434" dy="761" grid="0" gridSize="10" guides="0" tooltips="0" connect="1" arrows="1" fold="1" page="1" pageScale="1" pageWidth="827" pageHeight="1169" math="0" shadow="0">
      <root>
        <mxCell id="0" />
        <mxCell id="1" parent="0" />
        <mxCell id="2pJm_FzE26ILwOER_xCN-16" style="edgeStyle=orthogonalEdgeStyle;rounded=1;orthogonalLoop=1;jettySize=auto;html=1;exitX=1;exitY=0.5;exitDx=0;exitDy=0;entryX=1;entryY=0.25;entryDx=0;entryDy=0;curved=0;strokeColor=#99CCFF;" parent="1" source="2pJm_FzE26ILwOER_xCN-1" target="2pJm_FzE26ILwOER_xCN-2" edge="1">
          <mxGeometry relative="1" as="geometry" />
        </mxCell>
        <mxCell id="2pJm_FzE26ILwOER_xCN-1" value="&lt;font style=&quot;font-size: 14px;&quot;&gt;replica&lt;/font&gt;" style="rounded=1;whiteSpace=wrap;html=1;fillColor=#d5e8d4;strokeColor=#82b366;" parent="1" vertex="1">
          <mxGeometry x="204" y="130" width="100" height="40" as="geometry" />
        </mxCell>
        <mxCell id="2pJm_FzE26ILwOER_xCN-15" style="edgeStyle=orthogonalEdgeStyle;rounded=1;orthogonalLoop=1;jettySize=auto;html=1;exitX=1;exitY=0.5;exitDx=0;exitDy=0;entryX=1;entryY=0.25;entryDx=0;entryDy=0;curved=0;strokeColor=#99CCFF;" parent="1" source="2pJm_FzE26ILwOER_xCN-2" target="2pJm_FzE26ILwOER_xCN-1" edge="1">
          <mxGeometry relative="1" as="geometry">
            <Array as="points">
              <mxPoint x="350" y="220" />
              <mxPoint x="350" y="140" />
            </Array>
          </mxGeometry>
        </mxCell>
        <mxCell id="2pJm_FzE26ILwOER_xCN-25" style="edgeStyle=orthogonalEdgeStyle;rounded=0;orthogonalLoop=1;jettySize=auto;html=1;exitX=0;exitY=0.75;exitDx=0;exitDy=0;entryX=1;entryY=0.75;entryDx=0;entryDy=0;strokeColor=#99CCFF;" parent="1" source="2pJm_FzE26ILwOER_xCN-2" target="2pJm_FzE26ILwOER_xCN-23" edge="1">
          <mxGeometry relative="1" as="geometry" />
        </mxCell>
        <mxCell id="2pJm_FzE26ILwOER_xCN-26" style="edgeStyle=orthogonalEdgeStyle;rounded=1;orthogonalLoop=1;jettySize=auto;html=1;exitX=1;exitY=0.5;exitDx=0;exitDy=0;entryX=1;entryY=0.75;entryDx=0;entryDy=0;curved=0;" parent="1" source="2pJm_FzE26ILwOER_xCN-2" target="2pJm_FzE26ILwOER_xCN-3" edge="1">
          <mxGeometry relative="1" as="geometry">
            <Array as="points">
              <mxPoint x="350" y="220" />
              <mxPoint x="350" y="300" />
            </Array>
          </mxGeometry>
        </mxCell>
        <mxCell id="2pJm_FzE26ILwOER_xCN-2" value="&lt;font style=&quot;font-size: 14px;&quot;&gt;replica&lt;/font&gt;" style="rounded=1;whiteSpace=wrap;html=1;fillColor=#d5e8d4;strokeColor=#82b366;" parent="1" vertex="1">
          <mxGeometry x="204" y="200" width="100" height="40" as="geometry" />
        </mxCell>
        <mxCell id="2pJm_FzE26ILwOER_xCN-27" style="edgeStyle=orthogonalEdgeStyle;rounded=1;orthogonalLoop=1;jettySize=auto;html=1;exitX=1;exitY=0.25;exitDx=0;exitDy=0;entryX=1;entryY=0.75;entryDx=0;entryDy=0;curved=0;" parent="1" source="2pJm_FzE26ILwOER_xCN-3" target="2pJm_FzE26ILwOER_xCN-2" edge="1">
          <mxGeometry relative="1" as="geometry">
            <Array as="points">
              <mxPoint x="324" y="280" />
              <mxPoint x="324" y="230" />
            </Array>
          </mxGeometry>
        </mxCell>
        <mxCell id="2pJm_FzE26ILwOER_xCN-3" value="&lt;font style=&quot;font-size: 14px;&quot;&gt;replica&lt;/font&gt;" style="rounded=1;whiteSpace=wrap;html=1;fillColor=#d5e8d4;strokeColor=#82b366;" parent="1" vertex="1">
          <mxGeometry x="204" y="270" width="100" height="40" as="geometry" />
        </mxCell>
        <mxCell id="2pJm_FzE26ILwOER_xCN-24" style="edgeStyle=orthogonalEdgeStyle;rounded=0;orthogonalLoop=1;jettySize=auto;html=1;exitX=1;exitY=0.25;exitDx=0;exitDy=0;entryX=0;entryY=0.25;entryDx=0;entryDy=0;strokeColor=#99CCFF;" parent="1" source="2pJm_FzE26ILwOER_xCN-23" target="2pJm_FzE26ILwOER_xCN-2" edge="1">
          <mxGeometry relative="1" as="geometry">
            <Array as="points">
              <mxPoint x="170" y="210" />
              <mxPoint x="170" y="210" />
            </Array>
          </mxGeometry>
        </mxCell>
        <mxCell id="2pJm_FzE26ILwOER_xCN-23" value="client" style="rounded=1;whiteSpace=wrap;html=1;fillColor=#dae8fc;strokeColor=#6c8ebf;" parent="1" vertex="1">
          <mxGeometry x="80" y="200" width="70" height="40" as="geometry" />
        </mxCell>
        <mxCell id="2pJm_FzE26ILwOER_xCN-39" style="edgeStyle=orthogonalEdgeStyle;rounded=1;orthogonalLoop=1;jettySize=auto;html=1;exitX=0;exitY=0.5;exitDx=0;exitDy=0;entryX=0.75;entryY=0;entryDx=0;entryDy=0;curved=0;strokeColor=#99CCFF;" parent="1" source="2pJm_FzE26ILwOER_xCN-29" target="2pJm_FzE26ILwOER_xCN-37" edge="1">
          <mxGeometry relative="1" as="geometry" />
        </mxCell>
        <mxCell id="2pJm_FzE26ILwOER_xCN-29" value="&lt;font style=&quot;font-size: 14px;&quot;&gt;replica&lt;/font&gt;" style="rounded=1;whiteSpace=wrap;html=1;fillColor=#d5e8d4;strokeColor=#82b366;" parent="1" vertex="1">
          <mxGeometry x="204" y="370" width="100" height="40" as="geometry" />
        </mxCell>
        <mxCell id="2pJm_FzE26ILwOER_xCN-31" style="edgeStyle=orthogonalEdgeStyle;rounded=0;orthogonalLoop=1;jettySize=auto;html=1;exitX=0;exitY=0.75;exitDx=0;exitDy=0;entryX=1;entryY=0.75;entryDx=0;entryDy=0;strokeColor=#99CCFF;" parent="1" source="2pJm_FzE26ILwOER_xCN-33" target="2pJm_FzE26ILwOER_xCN-37" edge="1">
          <mxGeometry relative="1" as="geometry">
            <Array as="points">
              <mxPoint x="190" y="470" />
              <mxPoint x="190" y="470" />
            </Array>
          </mxGeometry>
        </mxCell>
        <mxCell id="2pJm_FzE26ILwOER_xCN-33" value="&lt;font style=&quot;font-size: 14px;&quot;&gt;replica&lt;/font&gt;" style="rounded=1;whiteSpace=wrap;html=1;fillColor=#d5e8d4;strokeColor=#82b366;" parent="1" vertex="1">
          <mxGeometry x="204" y="440" width="100" height="40" as="geometry" />
        </mxCell>
        <mxCell id="2pJm_FzE26ILwOER_xCN-41" style="edgeStyle=orthogonalEdgeStyle;rounded=1;orthogonalLoop=1;jettySize=auto;html=1;exitX=0;exitY=0.25;exitDx=0;exitDy=0;entryX=0.75;entryY=1;entryDx=0;entryDy=0;curved=0;" parent="1" source="2pJm_FzE26ILwOER_xCN-35" target="2pJm_FzE26ILwOER_xCN-37" edge="1">
          <mxGeometry relative="1" as="geometry" />
        </mxCell>
        <mxCell id="2pJm_FzE26ILwOER_xCN-35" value="&lt;font style=&quot;font-size: 14px;&quot;&gt;replica&lt;/font&gt;" style="rounded=1;whiteSpace=wrap;html=1;fillColor=#d5e8d4;strokeColor=#82b366;" parent="1" vertex="1">
          <mxGeometry x="204" y="510" width="100" height="40" as="geometry" />
        </mxCell>
        <mxCell id="2pJm_FzE26ILwOER_xCN-36" style="edgeStyle=orthogonalEdgeStyle;rounded=0;orthogonalLoop=1;jettySize=auto;html=1;exitX=1;exitY=0.25;exitDx=0;exitDy=0;entryX=0;entryY=0.25;entryDx=0;entryDy=0;strokeColor=#99CCFF;" parent="1" source="2pJm_FzE26ILwOER_xCN-37" target="2pJm_FzE26ILwOER_xCN-33" edge="1">
          <mxGeometry relative="1" as="geometry" />
        </mxCell>
        <mxCell id="2pJm_FzE26ILwOER_xCN-38" style="edgeStyle=orthogonalEdgeStyle;rounded=1;orthogonalLoop=1;jettySize=auto;html=1;exitX=0.5;exitY=0;exitDx=0;exitDy=0;entryX=0;entryY=0.25;entryDx=0;entryDy=0;curved=0;strokeColor=#99CCFF;" parent="1" source="2pJm_FzE26ILwOER_xCN-37" target="2pJm_FzE26ILwOER_xCN-29" edge="1">
          <mxGeometry relative="1" as="geometry" />
        </mxCell>
        <mxCell id="2pJm_FzE26ILwOER_xCN-40" style="edgeStyle=orthogonalEdgeStyle;rounded=1;orthogonalLoop=1;jettySize=auto;html=1;exitX=0.5;exitY=1;exitDx=0;exitDy=0;entryX=0;entryY=0.75;entryDx=0;entryDy=0;curved=0;" parent="1" source="2pJm_FzE26ILwOER_xCN-37" target="2pJm_FzE26ILwOER_xCN-35" edge="1">
          <mxGeometry relative="1" as="geometry" />
        </mxCell>
        <mxCell id="2pJm_FzE26ILwOER_xCN-37" value="client" style="rounded=1;whiteSpace=wrap;html=1;fillColor=#dae8fc;strokeColor=#6c8ebf;" parent="1" vertex="1">
          <mxGeometry x="80" y="440" width="70" height="40" as="geometry" />
        </mxCell>
        <mxCell id="2pJm_FzE26ILwOER_xCN-42" value="&lt;font style=&quot;font-size: 18px;&quot;&gt;quorum写&lt;/font&gt;" style="text;html=1;align=center;verticalAlign=middle;whiteSpace=wrap;rounded=0;" parent="1" vertex="1">
          <mxGeometry x="80" y="340" width="92" height="30" as="geometry" />
        </mxCell>
        <mxCell id="2pJm_FzE26ILwOER_xCN-43" value="&lt;font style=&quot;font-size: 18px;&quot;&gt;raft写&lt;/font&gt;" style="text;html=1;align=center;verticalAlign=middle;whiteSpace=wrap;rounded=0;" parent="1" vertex="1">
          <mxGeometry x="80" y="100" width="70" height="30" as="geometry" />
        </mxCell>
        <mxCell id="kTULqZet_HhxTrKiVIgF-6" style="edgeStyle=orthogonalEdgeStyle;rounded=1;orthogonalLoop=1;jettySize=auto;html=1;exitX=1;exitY=0.5;exitDx=0;exitDy=0;entryX=0;entryY=0.5;entryDx=0;entryDy=0;curved=0;" parent="1" source="kTULqZet_HhxTrKiVIgF-1" target="kTULqZet_HhxTrKiVIgF-5" edge="1">
          <mxGeometry relative="1" as="geometry" />
        </mxCell>
        <mxCell id="kTULqZet_HhxTrKiVIgF-1" value="&lt;font style=&quot;font-size: 14px;&quot;&gt;写入量&lt;/font&gt;" style="rounded=1;whiteSpace=wrap;html=1;fillColor=#dae8fc;strokeColor=#6c8ebf;" parent="1" vertex="1">
          <mxGeometry x="144" y="663" width="93" height="37" as="geometry" />
        </mxCell>
        <mxCell id="kTULqZet_HhxTrKiVIgF-7" style="edgeStyle=orthogonalEdgeStyle;rounded=1;orthogonalLoop=1;jettySize=auto;html=1;exitX=1;exitY=0.5;exitDx=0;exitDy=0;entryX=0;entryY=0.5;entryDx=0;entryDy=0;curved=0;" parent="1" source="kTULqZet_HhxTrKiVIgF-2" target="kTULqZet_HhxTrKiVIgF-5" edge="1">
          <mxGeometry relative="1" as="geometry" />
        </mxCell>
        <mxCell id="kTULqZet_HhxTrKiVIgF-2" value="&lt;font style=&quot;font-size: 14px;&quot;&gt;快照时间&lt;/font&gt;" style="rounded=1;whiteSpace=wrap;html=1;fillColor=#dae8fc;strokeColor=#6c8ebf;" parent="1" vertex="1">
          <mxGeometry x="145" y="724" width="93" height="37" as="geometry" />
        </mxCell>
        <mxCell id="kTULqZet_HhxTrKiVIgF-8" style="edgeStyle=orthogonalEdgeStyle;rounded=1;orthogonalLoop=1;jettySize=auto;html=1;exitX=1;exitY=0.5;exitDx=0;exitDy=0;entryX=0;entryY=0.5;entryDx=0;entryDy=0;curved=0;" parent="1" source="kTULqZet_HhxTrKiVIgF-3" target="kTULqZet_HhxTrKiVIgF-5" edge="1">
          <mxGeometry relative="1" as="geometry" />
        </mxCell>
        <mxCell id="kTULqZet_HhxTrKiVIgF-3" value="&lt;font style=&quot;font-size: 14px;&quot;&gt;compaction&lt;/font&gt;" style="rounded=1;whiteSpace=wrap;html=1;fillColor=#dae8fc;strokeColor=#6c8ebf;" parent="1" vertex="1">
          <mxGeometry x="147" y="787" width="93" height="37" as="geometry" />
        </mxCell>
        <mxCell id="kTULqZet_HhxTrKiVIgF-9" style="edgeStyle=orthogonalEdgeStyle;rounded=1;orthogonalLoop=1;jettySize=auto;html=1;exitX=1;exitY=0.5;exitDx=0;exitDy=0;entryX=0;entryY=0.5;entryDx=0;entryDy=0;curved=0;" parent="1" source="kTULqZet_HhxTrKiVIgF-4" target="kTULqZet_HhxTrKiVIgF-5" edge="1">
          <mxGeometry relative="1" as="geometry" />
        </mxCell>
        <mxCell id="kTULqZet_HhxTrKiVIgF-4" value="&lt;font style=&quot;font-size: 14px;&quot;&gt;rewrite&lt;/font&gt;" style="rounded=1;whiteSpace=wrap;html=1;fillColor=#dae8fc;strokeColor=#6c8ebf;" parent="1" vertex="1">
          <mxGeometry x="147" y="850" width="93" height="37" as="geometry" />
        </mxCell>
        <mxCell id="kTULqZet_HhxTrKiVIgF-5" value="&lt;font style=&quot;font-size: 14px;&quot;&gt;do snapshot&lt;/font&gt;" style="rounded=0;whiteSpace=wrap;html=1;fillColor=#d5e8d4;strokeColor=#82b366;" parent="1" vertex="1">
          <mxGeometry x="382" y="746" width="120" height="60" as="geometry" />
        </mxCell>
        <mxCell id="KwH6-qcyDf3DO03BHhKr-3" style="edgeStyle=orthogonalEdgeStyle;rounded=1;orthogonalLoop=1;jettySize=auto;html=1;exitX=1;exitY=0.5;exitDx=0;exitDy=0;entryX=0;entryY=0.5;entryDx=0;entryDy=0;curved=0;" edge="1" parent="1" source="KwH6-qcyDf3DO03BHhKr-1" target="KwH6-qcyDf3DO03BHhKr-2">
          <mxGeometry relative="1" as="geometry" />
        </mxCell>
        <mxCell id="KwH6-qcyDf3DO03BHhKr-1" value="" style="rounded=1;whiteSpace=wrap;html=1;" vertex="1" parent="1">
          <mxGeometry x="220" y="947" width="120" height="60" as="geometry" />
        </mxCell>
        <mxCell id="KwH6-qcyDf3DO03BHhKr-2" value="" style="rounded=1;whiteSpace=wrap;html=1;" vertex="1" parent="1">
          <mxGeometry x="540" y="1038" width="120" height="60" as="geometry" />
        </mxCell>
      </root>
    </mxGraphModel>
  </diagram>
</mxfile>
